<svg xmlns="http://www.w3.org/2000/svg" viewBox="0 0 1600 1120" width="1600" height="1120">
<style>
text { font-family: 'Helvetica Neue', Helvetica, Arial, 'PingFang SC', 'Microsoft YaHei', sans-serif; }
.title { fill:#111827; font-size:32px; font-weight:700; }
.subtitle { fill:#64748b; font-size:15px; }
.section { fill:#2563eb; font-size:14px; font-weight:700; letter-spacing:0.04em; }
.type { fill:#64748b; font-size:10px; font-weight:700; letter-spacing:0.08em; }
.node-title { fill:#111827; font-size:15px; font-weight:700; }
.node-sub { fill:#64748b; font-size:11.5px; }
.edge-label { font-size:11px; font-weight:600; }
.legend { fill:#475569; font-size:12px; }
.footer { fill:#64748b; font-size:12px; }
</style>
<defs>
<marker id="arrow-control" markerWidth="10" markerHeight="8" refX="9" refY="4" orient="auto">
<polygon points="0 0, 10 4, 0 8" fill="#7c3aed"/></marker>
<marker id="arrow-choice" markerWidth="10" markerHeight="8" refX="9" refY="4" orient="auto">
<polygon points="0 0, 10 4, 0 8" fill="#f97316"/></marker>
<marker id="arrow-bug" markerWidth="10" markerHeight="8" refX="9" refY="4" orient="auto">
<polygon points="0 0, 10 4, 0 8" fill="#16a34a"/></marker>
<marker id="arrow-feedback" markerWidth="10" markerHeight="8" refX="9" refY="4" orient="auto">
<polygon points="0 0, 10 4, 0 8" fill="#ef4444"/></marker>
</defs>
<rect data-graph-role="background" width="1600" height="1120" fill="#ffffff"/>
<text x="800" y="50" text-anchor="middle" class="title">Dimon Development Workflow</text>
<text x="800" y="78" text-anchor="middle" class="subtitle">Route by task size and type: Large · Small · Bug</text>
<g data-graph-role="container"><rect data-graph-role="container" x="40" y="110" width="1520" height="110" rx="12" fill="#f8fafc" fill-opacity="0.58" stroke="#cbd5e1" stroke-width="1.4" stroke-dasharray="7 6"/>
<text x="58" y="138" class="section">01 · Entry</text></g>
<g data-graph-role="container"><rect data-graph-role="container" x="40" y="270" width="460" height="390" rx="12" fill="#f8fafc" fill-opacity="0.58" stroke="#cbd5e1" stroke-width="1.4" stroke-dasharray="7 6"/>
<text x="58" y="298" class="section">02A · Large Requirement</text></g>
<g data-graph-role="container"><rect data-graph-role="container" x="570" y="270" width="460" height="390" rx="12" fill="#f8fafc" fill-opacity="0.58" stroke="#cbd5e1" stroke-width="1.4" stroke-dasharray="7 6"/>
<text x="588" y="298" class="section">02B · Small Requirement</text></g>
<g data-graph-role="container"><rect data-graph-role="container" x="1100" y="270" width="460" height="390" rx="12" fill="#f8fafc" fill-opacity="0.58" stroke="#cbd5e1" stroke-width="1.4" stroke-dasharray="7 6"/>
<text x="1118" y="298" class="section">02C · Bug</text></g>
<g data-graph-role="container"><rect data-graph-role="container" x="40" y="730" width="1520" height="260" rx="12" fill="#f8fafc" fill-opacity="0.58" stroke="#cbd5e1" stroke-width="1.4" stroke-dasharray="7 6"/>
<text x="1010" y="758" class="section">03 · DELIVERY-PIPELINE AUTOMATION</text></g>
<path id="start" data-graph-role="edge" data-source="request" data-target="route" d="M380 170 H695" fill="none" stroke="#7c3aed" stroke-width="2.2" stroke-linejoin="round" stroke-linecap="round" marker-end="url(#arrow-control)"/>
<path id="route-large" data-graph-role="edge" data-source="route" data-target="large-clarify" d="M695 170 V235 H270 V318" fill="none" stroke="#f97316" stroke-width="2.2" stroke-linejoin="round" stroke-linecap="round" marker-end="url(#arrow-choice)" stroke-dasharray="7 5"/>
<path id="route-small" data-graph-role="edge" data-source="route" data-target="small-grill" d="M800 210 V318" fill="none" stroke="#f97316" stroke-width="2.2" stroke-linejoin="round" stroke-linecap="round" marker-end="url(#arrow-choice)" stroke-dasharray="7 5"/>
<path id="route-bug" data-graph-role="edge" data-source="route" data-target="bug-worktree" d="M905 170 H1330 V304" fill="none" stroke="#f97316" stroke-width="2.2" stroke-linejoin="round" stroke-linecap="round" marker-end="url(#arrow-choice)" stroke-dasharray="7 5"/>
<path id="large-wayfinder" data-graph-role="edge" data-source="large-clarify" data-target="wayfinder" d="M270 398 V442" fill="none" stroke="#7c3aed" stroke-width="2.2" stroke-linejoin="round" stroke-linecap="round" marker-end="url(#arrow-control)"/>
<path id="wayfinder-map" data-graph-role="edge" data-source="wayfinder" data-target="shared-map" d="M270 504 V538" fill="none" stroke="#7c3aed" stroke-width="2.2" stroke-linejoin="round" stroke-linecap="round" marker-end="url(#arrow-control)"/>
<path id="small-spec" data-graph-role="edge" data-source="small-grill" data-target="to-spec" d="M800 388 V430" fill="none" stroke="#7c3aed" stroke-width="2.2" stroke-linejoin="round" stroke-linecap="round" marker-end="url(#arrow-control)"/>
<path id="small-tickets" data-graph-role="edge" data-source="to-spec" data-target="to-tickets" d="M800 500 V542" fill="none" stroke="#7c3aed" stroke-width="2.2" stroke-linejoin="round" stroke-linecap="round" marker-end="url(#arrow-control)"/>
<path id="bug-diagnose" data-graph-role="edge" data-source="bug-worktree" data-target="diagnosing-bugs" d="M1330 370 V396" fill="none" stroke="#16a34a" stroke-width="2.2" stroke-linejoin="round" stroke-linecap="round" marker-end="url(#arrow-bug)"/>
<path id="bug-commit" data-graph-role="edge" data-source="diagnosing-bugs" data-target="git-commit" d="M1330 462 V488" fill="none" stroke="#16a34a" stroke-width="2.2" stroke-linejoin="round" stroke-linecap="round" marker-end="url(#arrow-bug)"/>
<path id="bug-rebase" data-graph-role="edge" data-source="git-commit" data-target="git-rebase-main" d="M1330 554 V580" fill="none" stroke="#16a34a" stroke-width="2.2" stroke-linejoin="round" stroke-linecap="round" marker-end="url(#arrow-bug)"/>
<path id="map-pipeline" data-graph-role="edge" data-source="shared-map" data-target="dp-input" d="M270 620 V690 H110 V808" fill="none" stroke="#7c3aed" stroke-width="2.2" stroke-linejoin="round" stroke-linecap="round" marker-end="url(#arrow-control)"/>
<path id="tickets-pipeline" data-graph-role="edge" data-source="to-tickets" data-target="dp-input" d="M800 612 V710 H180 V808" fill="none" stroke="#7c3aed" stroke-width="2.2" stroke-linejoin="round" stroke-linecap="round" marker-end="url(#arrow-control)"/>
<path id="dp-gate" data-graph-role="edge" data-source="dp-input" data-target="gate" d="M220 843 H270" fill="none" stroke="#7c3aed" stroke-width="2.2" stroke-linejoin="round" stroke-linecap="round" marker-end="url(#arrow-control)"/>
<path id="dp-frontier" data-graph-role="edge" data-source="gate" data-target="frontier" d="M430 843 H490" fill="none" stroke="#7c3aed" stroke-width="2.2" stroke-linejoin="round" stroke-linecap="round" marker-end="url(#arrow-control)"/>
<path id="dp-lanes" data-graph-role="edge" data-source="frontier" data-target="lanes" d="M660 843 H720" fill="none" stroke="#7c3aed" stroke-width="2.2" stroke-linejoin="round" stroke-linecap="round" marker-end="url(#arrow-control)"/>
<path id="dp-fanin" data-graph-role="edge" data-source="lanes" data-target="fanin" d="M880 843 H940" fill="none" stroke="#7c3aed" stroke-width="2.2" stroke-linejoin="round" stroke-linecap="round" marker-end="url(#arrow-control)"/>
<path id="dp-quality" data-graph-role="edge" data-source="fanin" data-target="quality" d="M1120 843 H1170" fill="none" stroke="#7c3aed" stroke-width="2.2" stroke-linejoin="round" stroke-linecap="round" marker-end="url(#arrow-control)"/>
<path id="dp-remote" data-graph-role="edge" data-source="quality" data-target="remote" d="M1350 843 H1390" fill="none" stroke="#7c3aed" stroke-width="2.2" stroke-linejoin="round" stroke-linecap="round" marker-end="url(#arrow-control)"/>
<path id="dp-loop" data-graph-role="edge" data-source="fanin" data-target="frontier" d="M1030 878 V940 H575 V878" fill="none" stroke="#ef4444" stroke-width="2.2" stroke-linejoin="round" stroke-linecap="round" marker-end="url(#arrow-feedback)" stroke-dasharray="7 5"/>
<g data-graph-role="node" data-node-id="request">
<rect x="160" y="140" width="220" height="60" rx="10" fill="#f8fafc" stroke="#94a3b8" stroke-width="2"/>
<text x="270.0" y="158" text-anchor="middle" class="type">INPUT</text>
<text x="270.0" y="180" text-anchor="middle" class="node-title">Requirement / Problem</text>
<text x="270.0" y="199" text-anchor="middle" class="node-sub">Classify size and type</text>
</g>
<g data-graph-role="node" data-node-id="route">
<polygon points="800.0,130 905,170.0 800.0,210 695,170.0" fill="#faf5ff" stroke="#8b5cf6" stroke-width="2"/>
<text x="800.0" y="148" text-anchor="middle" class="type">ROUTER</text>
<text x="800.0" y="170" text-anchor="middle" class="node-title">Task Router</text>
<text x="800.0" y="189" text-anchor="middle" class="node-sub">Large · Small · Bug</text>
</g>
<g data-graph-role="node" data-node-id="large-clarify">
<rect x="90" y="318" width="360" height="80" rx="10" fill="#fff7ed" stroke="#f97316" stroke-width="2"/>
<text x="270.0" y="336" text-anchor="middle" class="type">OPTIONAL</text>
<text x="270.0" y="358" text-anchor="middle" class="node-title">Optional Discovery</text>
<text x="270.0" y="375" text-anchor="middle" class="node-sub">Research · Second Opinion · Grill</text>
<text x="270.0" y="390" text-anchor="middle" class="node-sub">Brainstorm · Office Hours</text>
</g>
<g data-graph-role="node" data-node-id="wayfinder">
<rect x="90" y="442" width="360" height="62" rx="10" fill="#eff6ff" stroke="#2563eb" stroke-width="2"/>
<rect x="94" y="446" width="352" height="54" rx="7" fill="none" stroke="#2563eb" stroke-width="0.9" opacity="0.55"/>
<text x="270.0" y="460" text-anchor="middle" class="type">PLAN</text>
<text x="270.0" y="482" text-anchor="middle" class="node-title">Wayfinder</text>
<text x="270.0" y="501" text-anchor="middle" class="node-sub">Create shared map once clear</text>
</g>
<g data-graph-role="node" data-node-id="shared-map">
<path d="M90,538 H434 L450,554 V620 H90 Z" fill="#f0fdf4" stroke="#16a34a" stroke-width="2"/>
<path d="M434,538 V554 H450" fill="none" stroke="#16a34a" stroke-width="1.2"/>
<text x="270.0" y="556" text-anchor="middle" class="type">ARTIFACT</text>
<text x="270.0" y="578" text-anchor="middle" class="node-title">Shared Map</text>
<text x="270.0" y="595" text-anchor="middle" class="node-sub">Destination · Decisions</text>
<text x="270.0" y="610" text-anchor="middle" class="node-sub">Frontier · Fog</text>
</g>
<g data-graph-role="node" data-node-id="small-grill">
<rect x="620" y="318" width="360" height="70" rx="10" fill="#fff7ed" stroke="#f97316" stroke-width="2"/>
<text x="800.0" y="336" text-anchor="middle" class="type">CLARIFY</text>
<text x="800.0" y="358" text-anchor="middle" class="node-title">grill-with-docs</text>
<text x="800.0" y="377" text-anchor="middle" class="node-sub">Grilling + Domain Modeling</text>
</g>
<g data-graph-role="node" data-node-id="to-spec">
<path d="M620,430 H964 L980,446 V500 H620 Z" fill="#eff6ff" stroke="#2563eb" stroke-width="2"/>
<path d="M964,430 V446 H980" fill="none" stroke="#2563eb" stroke-width="1.2"/>
<text x="800.0" y="448" text-anchor="middle" class="type">SPEC</text>
<text x="800.0" y="470" text-anchor="middle" class="node-title">to-spec</text>
<text x="800.0" y="489" text-anchor="middle" class="node-sub">Synthesis · Test Seam · Publish</text>
</g>
<g data-graph-role="node" data-node-id="to-tickets">
<path d="M620,542 H964 L980,558 V612 H620 Z" fill="#f0fdf4" stroke="#16a34a" stroke-width="2"/>
<path d="M964,542 V558 H980" fill="none" stroke="#16a34a" stroke-width="1.2"/>
<text x="800.0" y="560" text-anchor="middle" class="type">TICKETS</text>
<text x="800.0" y="582" text-anchor="middle" class="node-title">to-tickets</text>
<text x="800.0" y="601" text-anchor="middle" class="node-sub">Tracer Bullets · Blocking Edges</text>
</g>
<g data-graph-role="node" data-node-id="bug-worktree">
<path d="M1150,314 H1272.4 L1301.2,304 H1500 Q1510,304 1510,314 V370 H1150 Z" fill="#f8fafc" stroke="#64748b" stroke-width="2"/>
<text x="1330.0" y="322" text-anchor="middle" class="type">ISOLATE</text>
<text x="1330.0" y="344" text-anchor="middle" class="node-title">Create Worktree</text>
<text x="1330.0" y="363" text-anchor="middle" class="node-sub">One Bug · One Writer</text>
</g>
<g data-graph-role="node" data-node-id="diagnosing-bugs">
<rect x="1150" y="396" width="360" height="66" rx="10" fill="#fef2f2" stroke="#dc2626" stroke-width="2"/>
<rect x="1154" y="400" width="352" height="58" rx="7" fill="none" stroke="#dc2626" stroke-width="0.9" opacity="0.55"/>
<text x="1330.0" y="414" text-anchor="middle" class="type">DEBUG</text>
<text x="1330.0" y="436" text-anchor="middle" class="node-title">diagnosing-bugs</text>
<text x="1330.0" y="455" text-anchor="middle" class="node-sub">Red Loop · Min Repro · Root Cause</text>
</g>
<g data-graph-role="node" data-node-id="git-commit">
<rect x="1150" y="488" width="360" height="66" rx="10" fill="#f0fdf4" stroke="#16a34a" stroke-width="2"/>
<text x="1330.0" y="506" text-anchor="middle" class="type">LOCAL</text>
<text x="1330.0" y="528" text-anchor="middle" class="node-title">git-commit</text>
<text x="1330.0" y="547" text-anchor="middle" class="node-sub">Narrow · Auditable · Verified</text>
</g>
<g data-graph-role="node" data-node-id="git-rebase-main">
<rect x="1150" y="580" width="360" height="66" rx="10" fill="#eff6ff" stroke="#2563eb" stroke-width="2"/>
<text x="1330.0" y="598" text-anchor="middle" class="type">LAND</text>
<text x="1330.0" y="620" text-anchor="middle" class="node-title">git-rebase-main</text>
<text x="1330.0" y="639" text-anchor="middle" class="node-sub">Rebase + Fast-forward · Local Only</text>
</g>
<g data-graph-role="node" data-node-id="dp-input">
<rect x="60" y="808" width="160" height="70" rx="10" fill="#faf5ff" stroke="#8b5cf6" stroke-width="2"/>
<rect x="64" y="812" width="152" height="62" rx="7" fill="none" stroke="#8b5cf6" stroke-width="0.9" opacity="0.55"/>
<text x="140.0" y="826" text-anchor="middle" class="type">CONTROL</text>
<text x="140.0" y="848" text-anchor="middle" class="node-title">Take Map / Spec</text>
<text x="140.0" y="867" text-anchor="middle" class="node-sub">Resume Chain</text>
</g>
<g data-graph-role="node" data-node-id="gate">
<rect x="270" y="808" width="160" height="70" rx="10" fill="#eff6ff" stroke="#2563eb" stroke-width="2"/>
<text x="350.0" y="826" text-anchor="middle" class="type">STATE</text>
<text x="350.0" y="848" text-anchor="middle" class="node-title">Rebuild Gate</text>
<text x="350.0" y="867" text-anchor="middle" class="node-sub">Discovery → Tickets</text>
</g>
<g data-graph-role="node" data-node-id="frontier">
<polygon points="512,808 638,808 660,843.0 638,878 512,878 490,843.0" fill="#fff7ed" stroke="#f97316" stroke-width="2"/>
<text x="575.0" y="826" text-anchor="middle" class="type">SCHEDULE</text>
<text x="575.0" y="848" text-anchor="middle" class="node-title">Ready Frontier</text>
<text x="575.0" y="867" text-anchor="middle" class="node-sub">Largest Safe Batch</text>
</g>
<g data-graph-role="node" data-node-id="lanes">
<rect x="720" y="808" width="160" height="70" rx="10" fill="#f0fdfa" stroke="#0d9488" stroke-width="2"/>
<text x="800.0" y="826" text-anchor="middle" class="type">WORKERS</text>
<text x="800.0" y="848" text-anchor="middle" class="node-title">Role Lanes</text>
<text x="800.0" y="867" text-anchor="middle" class="node-sub">Isolated Worktree</text>
</g>
<g data-graph-role="node" data-node-id="fanin">
<rect x="940" y="808" width="180" height="70" rx="10" fill="#f0fdf4" stroke="#16a34a" stroke-width="2"/>
<rect x="944" y="812" width="172" height="62" rx="7" fill="none" stroke="#16a34a" stroke-width="0.9" opacity="0.55"/>
<text x="1030.0" y="826" text-anchor="middle" class="type">INTEGRATE</text>
<text x="1030.0" y="848" text-anchor="middle" class="node-title">Terminal Fan-in</text>
<text x="1030.0" y="867" text-anchor="middle" class="node-sub">Verify + Pick</text>
</g>
<g data-graph-role="node" data-node-id="quality">
<rect x="1170" y="808" width="180" height="70" rx="10" fill="#fef2f2" stroke="#dc2626" stroke-width="2"/>
<text x="1260.0" y="826" text-anchor="middle" class="type">QUALITY</text>
<text x="1260.0" y="848" text-anchor="middle" class="node-title">Testing + Review</text>
<text x="1260.0" y="867" text-anchor="middle" class="node-sub">Checks · Verdict</text>
</g>
<g data-graph-role="node" data-node-id="remote">
<rect x="1390" y="808" width="180" height="70" rx="10" fill="#f8fafc" stroke="#64748b" stroke-width="2"/>
<text x="1480.0" y="826" text-anchor="middle" class="type">AUTHORITY</text>
<text x="1480.0" y="848" text-anchor="middle" class="node-title">Publication Gate</text>
<text x="1480.0" y="867" text-anchor="middle" class="node-sub">Push · PR · Merge</text>
</g>
<g data-graph-role="label"><rect x="596.0" y="212" width="48" height="20" rx="5" fill="#ffffff" opacity="0.96"/>
<text x="620" y="226" text-anchor="middle" class="edge-label" fill="#f97316">Large</text></g>
<g data-graph-role="label"><rect x="798.0" y="238" width="48" height="20" rx="5" fill="#ffffff" opacity="0.96"/>
<text x="822" y="252" text-anchor="middle" class="edge-label" fill="#f97316">Small</text></g>
<g data-graph-role="label"><rect x="1038.0" y="148" width="48" height="20" rx="5" fill="#ffffff" opacity="0.96"/>
<text x="1062" y="162" text-anchor="middle" class="edge-label" fill="#f97316">Bug</text></g>
<g data-graph-role="label"><rect x="221.0" y="819" width="48" height="20" rx="5" fill="#ffffff" opacity="0.96"/>
<text x="245" y="833" text-anchor="middle" class="edge-label" fill="#7c3aed">Resume</text></g>
<g data-graph-role="label"><rect x="436.0" y="819" width="48" height="20" rx="5" fill="#ffffff" opacity="0.96"/>
<text x="460" y="833" text-anchor="middle" class="edge-label" fill="#7c3aed">Rebuild</text></g>
<g data-graph-role="label"><rect x="666.0" y="819" width="48" height="20" rx="5" fill="#ffffff" opacity="0.96"/>
<text x="690" y="833" text-anchor="middle" class="edge-label" fill="#7c3aed">Dispatch</text></g>
<g data-graph-role="label"><rect x="886.0" y="819" width="48" height="20" rx="5" fill="#ffffff" opacity="0.96"/>
<text x="910" y="833" text-anchor="middle" class="edge-label" fill="#7c3aed">Complete</text></g>
<g data-graph-role="label"><rect x="1121.0" y="819" width="48" height="20" rx="5" fill="#ffffff" opacity="0.96"/>
<text x="1145" y="833" text-anchor="middle" class="edge-label" fill="#7c3aed">Drained</text></g>
<g data-graph-role="label"><rect x="1346.0" y="819" width="48" height="20" rx="5" fill="#ffffff" opacity="0.96"/>
<text x="1370" y="833" text-anchor="middle" class="edge-label" fill="#7c3aed">Pass</text></g>
<g data-graph-role="label"><rect x="754.0" y="918" width="92" height="20" rx="5" fill="#ffffff" opacity="0.96"/>
<text x="800" y="932" text-anchor="middle" class="edge-label" fill="#ef4444">Next Batch</text></g>
<g data-graph-role="legend" transform="translate(60 1030)">
<path d="M0 0 H38" stroke="#7c3aed" stroke-width="2.2" fill="none" marker-end="url(#arrow-control)"/>
<text x="50" y="5" class="legend">Main Flow / Automatic Progression</text>
<path d="M330 0 H368" stroke="#f97316" stroke-width="2.2" fill="none" marker-end="url(#arrow-choice)" stroke-dasharray="7 5"/>
<text x="380" y="5" class="legend">Task Routing / Optional Choice</text>
<path d="M660 0 H698" stroke="#16a34a" stroke-width="2.2" fill="none" marker-end="url(#arrow-bug)"/>
<text x="710" y="5" class="legend">Local Bug Repair Chain</text>
<path d="M990 0 H1028" stroke="#ef4444" stroke-width="2.2" fill="none" marker-end="url(#arrow-feedback)" stroke-dasharray="7 5"/>
<text x="1040" y="5" class="legend">Automatic Next-batch Recompute</text>
</g>
<text x="60" y="1090" class="footer">Remote boundary: without publication authority, stop at a clean, verified local state</text>
</svg>
